<?xml version="1.0" encoding="utf-8"?>
<!-- Generator: Adobe Illustrator 19.2.0, SVG Export Plug-In . SVG Version: 6.00 Build 0)  -->
<svg version="1.1" xmlns="http://www.w3.org/2000/svg" xmlns:xlink="http://www.w3.org/1999/xlink" x="0px" y="0px"
	 viewBox="0 0 356.3 118.2" style="enable-background:new 0 0 356.3 118.2;" xml:space="preserve">
<style type="text/css">
	.st0{fill:url(#SVGID_1_);}
</style>
<g id="圖層_1">
</g>
<g id="圖層_2">
</g>
<g id="圖層_3">
	<g>
		<path d="M80.4,63.4c-2.9,0.2-4.7,1-5.2,2.3c0,2.9-0.1,5-0.2,6.3c0,3.9-1.6,5.8-4.9,5.8h-7c-2.6,0-3.9-1.1-3.9-3.3V62.2h13.1
			c4.9-0.1,7.4-2.8,7.4-8.1V37.8c0-4.5-2.5-6.9-7.4-7.5h-1.7c1.4-0.2,2.7-0.7,3.6-1.4c4.5-2.3,7-7.9,7.6-16.7c0-3.8-1.8-5.8-5.2-6
			H28.8c-3.5,0-6.9,2.4-10.3,7.3c-2,4.7-6.7,10.3-14.3,17.2c-1.1,1.3-1.7,2.5-1.7,3.8c0.7,4.3,2.6,6.5,5.7,6.5
			c0.9,0,2.1-0.4,3.4-1.3v14.9c0,5,2.2,7.6,6.6,7.8h15C28,68.1,18.8,73,5.5,76.7c-0.9,1.3-1.4,2.9-1.4,5c0.6,3.8,2.5,5.7,5.8,5.7
			c2.6,0,4.9-0.6,6.9-1.7c14.7-6.6,24.5-14.3,29-23.5h3.1v18.7c1,4,3.9,6,8.5,6.2h16.5c6.5-0.2,10.2-2.5,11.1-7.2
			c0.4-3.4,0.5-7.8,0.5-13.3C85.4,64.5,83.7,63.4,80.4,63.4z M38.5,52.1H23.5c-0.9-0.1-1.3-0.6-1.5-1.7v-8.9c0.4-0.7,1-1.1,1.5-1.2
			h16.5C39.8,45.2,39.3,49.1,38.5,52.1z M20.2,30.3c2.2-2.7,4.6-6.2,7.3-10.3c2.2-2.5,4-3.8,5.8-3.9h36.1c0.9,0,1.4,0.4,1.4,1.3
			c0,1.3-0.4,2.2-1.1,2.7c-0.9,0.8-2.1,1.2-3.5,1.2c-5-0.4-10.2-1.3-15.6-2.5c-2.5,0.5-3.8,1.9-3.8,4c0,2.7,0.5,4.3,1.6,5
			c3,1.3,6.7,2.2,11.1,2.5H20.2z M49,52.1c0.4-3.2,0.8-7.1,1.1-11.8h17.4c1,0,1.6,0.4,1.8,1.3v9c0,1-0.7,1.4-2.1,1.4H49z"/>
		<path d="M166.3,70.2l0.1-21.6h0.1c4.1,0,6.7-0.7,7.6-2.2c1.2-0.6,1.8-5.4,1.8-14.2c0-3.6-1.8-5.5-5.2-5.7h-20.9v-2.2h17.6
			c3.2,0,4.9-1.3,4.9-3.7V10.1c-0.2-2.2-1.7-3.4-4.6-3.8h-18.3c-0.5-1.4-2.2-2.2-4.9-2.2c-2.3,0.4-3.8,1.2-4.4,2.2h-11.4
			c-0.2-1.8-2.1-2.8-5.5-2.8c-2.6,0.2-4.2,1.2-4.8,2.8H96.8c-1.6,0.3-2.5,1.5-2.8,3.8c0,2.4,1.1,3.7,3.2,3.7h21v3.5H99.4
			c-3.1,0.2-4.7,1.3-4.9,3.4v9.9c0.2,2.3,2,3.5,5.5,3.5h7.3c-3.3,2-7.6,3.9-12.8,5.7c-1.4,1.6-2.2,3.1-2.2,4.3
			c0.5,3.2,2.2,5.3,5.1,6.4c0.9,0,1.9-0.2,2.8-0.5c1.3-0.4,2.5-1,3.9-1.5v21.8c0.3,2.5,1.7,4,4.4,4.5c-4,1-8.3,1.9-12.7,2.8
			c-2.3,0.9-3.4,2.1-3.4,3.7c0,4.1,1.3,6.6,3.7,7.5c1.3,0,3.1-0.5,5.5-1.3c9.2-1.9,16-3.7,20.7-5.4c2-0.9,3-2.1,3-3.3
			c-0.1-1.4-0.3-2.7-0.5-3.8h19.4c-0.5,1-0.8,2.2-0.9,3.7c0.4,1.6,1.3,2.8,3,3.4c7.7,1.8,14.9,3.5,21.7,5.3c0.6,0.4,1.6,0.6,2.9,0.6
			c2.9-0.4,4.3-2.6,4.3-6.5c-0.1-1.5-1-2.9-2.8-4.3c-2.9-0.7-6.1-1.6-9.8-2.5C165.1,74.1,166.3,72.6,166.3,70.2z M149.9,13.7h11.5
			c0.9,0.2,1.4,0.8,1.4,1.8v0.2c0,1.1-0.4,1.5-1.3,1.5h-11.7V13.7z M128.8,13.7h11v3.5h-11V13.7z M128.2,24.4h11.6v2.2h-12.1
			C127.9,25.9,128,25.2,128.2,24.4z M123.8,34.1h16v1.4h-17.2C123,35.1,123.4,34.6,123.8,34.1z M153.9,44.6c0.8,0.2,1.3,0.6,1.5,1.3
			h-40.8c0.1-0.5,0.5-1,1.3-1.3H153.9z M105.6,26.6c-1,0-1.5-0.4-1.5-1.4c0-0.5,0.4-0.9,1-0.9h12.1c-0.4,0.8-0.8,1.5-1.3,2.2H105.6z
			 M153.8,66.1h-37.7c-1.1,0-1.6-0.7-1.6-2.1h41C155.5,65.3,154.9,65.9,153.8,66.1z M155.5,55.8h-41v-2.1h41V55.8z M160.9,35.5
			h-11.1v-1.4h15.5c0.7,0,1.2,0.4,1.2,0.9c0,1.4-0.2,2.5-0.4,3.3C165.4,36.7,163.7,35.7,160.9,35.5z"/>
		<path d="M263.3,9.1h-77.9c-2.1,0.7-3.1,2.6-3.1,5.6c0,4.3,1.3,6.4,4,6.4h29.7v76.1l-8.8-2.6l14.4,23.6L236,94.6l-8,2.4V43.8
			c7,4.4,13.8,9.6,20.7,15.6c1.3,1.3,2.7,2.1,4,2.2c1.8,0,3.2-0.7,4.1-2.1c1.1-1.1,1.8-2.6,2.2-4.6c0-1.3-0.5-2.6-1.5-4
			c-8.5-7.2-18.3-14.4-29.5-21.8V21h34.9c2.2,0,3.4-2,3.4-5.9C266.3,11.5,265.2,9.4,263.3,9.1z"/>
		<path d="M352.3,62.3c-2.9,0.1-4.7,0.8-5.4,2.1c-0.2,5.7-0.4,8.5-0.5,8.5c-1.3,0-2.4-2.2-3.6-6.9c0.4-0.5,0.7-1.2,1.1-1.9
			c5.9-12,9.3-21.3,9.8-27.6c0-2.2-1.4-3.8-4.3-4.6c-2.3,0-3.8,0.4-4.5,1.3c-1.3,5.5-3,10.7-5.1,15.6c-0.3-1.8-0.5-3.7-0.7-5.8
			c-0.3-3.1-0.4-7.8-0.5-14h15.1c1.7,0,2.6-1.4,2.6-4.5c0-2.7-0.8-4.1-2.2-4.5h-2.3c0,0,0,0,0.2-0.2c1.3-1.1,2-2.4,2-4
			c0-1.3-1.7-4.1-5.1-8.4c-1.7-1.3-3.1-2.2-4-2.6c-2,0.1-3.6,1.2-4.9,3.1c-0.4,0.4-0.5,1.2-0.5,2.4c0,0.5,0.5,1.4,1.6,2.6
			c1.6,2.3,3.1,4.5,4.2,6.5c0.2,0.2,0.4,0.4,0.6,0.5h-7.4c-0.1-3.2-0.1-6.9-0.1-11c-0.5-2.9-2.3-4.3-5.6-4.3c-3.2,0.5-4.8,2-4.8,4.3
			c0,4,0,7.6,0.1,11h-21.7v-2.3h15.7c1.9,0,2.9-1.4,2.9-4.3c0-2.2-0.8-3.6-2.4-4.1h-16.2V7.8c0-2.2-1.7-3.4-4.9-3.4
			c-3.6,0.1-5.4,1.3-5.4,3.4V9h-17.9c-1.6,0.5-2.5,1.8-2.5,3.8c0,3.1,1,4.7,3,4.7H296v2.3h-21c-1.6,0.5-2.3,2-2.3,4.2
			c0,3.2,1,4.8,3.1,4.8H296v2h-18.9c-1.6,0.5-2.4,1.8-2.4,3.8c0,3,1,4.4,2.9,4.4H296V41h-13.9c-3.7,0.3-5.5,1.9-5.5,4.8v18.6
			c0.2,3.1,2.1,4.8,5.7,4.8H296v2.1h-19.6c-1.8,0.5-2.8,2-2.8,4.2c0.1,3.3,1.2,5,3.3,5H296v3.9c0,2.1,1.8,3.2,5.4,3.5
			c3.2-0.2,4.9-1.5,4.9-4v-3.3h9.9c-0.4,0.5-0.5,1.1-0.5,1.6c1.3,3.6,3.3,5.4,6.4,5.4c1.7,0,3.3-0.7,4.9-2.1
			c3.1-2.7,5.8-5.7,8.5-8.8c3,7.6,6.7,11.4,11.3,11.4c5.4,0,8.5-7.3,9.6-21.7C356.3,64.4,355,63,352.3,62.3z M296,61.2h-7.7
			c-1.6,0-2.4-0.5-2.4-1.5v-1.3H296V61.2z M296,51.1h-10.2v-0.7c0.2-1,0.5-1.5,1.2-1.6h9V51.1z M306.3,48.8h8.1
			c1.3,0,2.1,0.6,2.1,1.8v0.5h-10.2V48.8z M306.3,58.3h10.2v1.1c0,1.2-0.8,1.8-2.2,1.8h-7.9V58.3z M324.4,72.1
			c-0.4-0.4-0.9-0.7-1.5-0.9h-16.5v-2.1H320c3.8,0,5.8-1.7,5.8-5.1V46.3c0-3.2-1.8-4.9-5.2-5.3h-14.2v-2.1h17.9
			c1.9,0,2.9-1.3,2.9-4.1c0-2.2-0.8-3.5-2.4-4h-18.3v-2h21.8c0,7.9,0.2,13,0.4,15.4c0.8,7.2,1.8,13.7,3.1,19.2
			C329.4,66.4,327.1,69.3,324.4,72.1z"/>
	</g>
	<linearGradient id="SVGID_1_" gradientUnits="userSpaceOnUse" x1="176.958" y1="3.2841" x2="176.958" y2="116.7135">
		<stop  offset="0" style="stop-color:#9FFF00"/>
		<stop  offset="7.301437e-002" style="stop-color:#B0FF00"/>
		<stop  offset="0.2742" style="stop-color:#DBFF00"/>
		<stop  offset="0.4316" style="stop-color:#F5FF00"/>
		<stop  offset="0.525" style="stop-color:#FFFF00"/>
		<stop  offset="0.5956" style="stop-color:#F9FF00"/>
		<stop  offset="0.6913" style="stop-color:#E8FF00"/>
		<stop  offset="0.8015" style="stop-color:#CBFF00"/>
		<stop  offset="0.9214" style="stop-color:#A4FF00"/>
		<stop  offset="1" style="stop-color:#86FF00"/>
	</linearGradient>
	<path class="st0" d="M78,59.9c-2.9,0.2-4.7,1-5.2,2.3c0,2.9-0.1,5-0.2,6.3c0,3.9-1.6,5.8-4.9,5.8h-7c-2.6,0-3.9-1.1-3.9-3.3V58.7
		H70c4.9-0.1,7.4-2.8,7.4-8.1V34.3c0-4.5-2.5-6.9-7.4-7.5h-1.7c1.4-0.2,2.7-0.7,3.6-1.4c4.5-2.3,7-7.9,7.6-16.7c0-3.8-1.8-5.8-5.2-6
		H26.3C22.8,2.6,19.4,5,16,9.9c-2,4.7-6.7,10.3-14.3,17.2C0.6,28.3,0,29.6,0,30.8c0.7,4.3,2.6,6.5,5.7,6.5c0.9,0,2.1-0.4,3.4-1.3
		v14.9c0,5,2.2,7.6,6.6,7.8h15c-5,5.9-14.3,10.8-27.6,14.5c-0.9,1.3-1.4,2.9-1.4,5c0.6,3.8,2.5,5.7,5.8,5.7c2.6,0,4.9-0.6,6.9-1.7
		c14.7-6.6,24.5-14.3,29-23.5h3.1v18.7c1,4,3.9,6,8.5,6.2h16.5c6.5-0.2,10.2-2.5,11.1-7.2C82.8,73,83,68.6,83,63.1
		C83,61,81.3,59.9,78,59.9z M36.1,48.6H21.1c-0.9-0.1-1.3-0.6-1.5-1.7V38c0.4-0.7,1-1.1,1.5-1.2h16.5C37.4,41.7,36.9,45.6,36.1,48.6
		z M17.8,26.8c2.2-2.7,4.6-6.2,7.3-10.3c2.2-2.5,4-3.8,5.8-3.9h36.1c0.9,0,1.4,0.4,1.4,1.3c0,1.3-0.4,2.2-1.1,2.7
		c-0.9,0.8-2.1,1.2-3.5,1.2c-5-0.4-10.2-1.3-15.6-2.5c-2.5,0.5-3.8,1.9-3.8,4c0,2.7,0.5,4.3,1.6,5c3,1.3,6.7,2.2,11.1,2.5H17.8z
		 M46.6,48.6c0.4-3.2,0.8-7.1,1.1-11.8h17.4c1,0,1.6,0.4,1.8,1.3v9c0,1-0.7,1.4-2.1,1.4H46.6z M163.9,66.7l0.1-21.6h0.1
		c4.1,0,6.7-0.7,7.6-2.2c1.2-0.6,1.8-5.4,1.8-14.2c0-3.6-1.8-5.5-5.2-5.7h-20.9v-2.2h17.6c3.2,0,4.9-1.3,4.9-3.7V6.6
		c-0.2-2.2-1.7-3.4-4.6-3.8h-18.3c-0.5-1.4-2.2-2.2-4.9-2.2c-2.3,0.4-3.8,1.2-4.4,2.2h-11.4C126.2,1,124.3,0,120.8,0
		c-2.6,0.2-4.2,1.2-4.8,2.8H94.4c-1.6,0.3-2.5,1.5-2.8,3.8c0,2.4,1.1,3.7,3.2,3.7h21v3.5H97c-3.1,0.2-4.7,1.3-4.9,3.4v9.9
		c0.2,2.3,2,3.5,5.5,3.5h7.3c-3.3,2-7.6,3.9-12.8,5.7c-1.4,1.6-2.2,3.1-2.2,4.3c0.5,3.2,2.2,5.3,5.1,6.4c0.9,0,1.9-0.2,2.8-0.5
		c1.3-0.4,2.5-1,3.9-1.5v21.8c0.3,2.5,1.7,4,4.4,4.5c-4,1-8.3,1.9-12.7,2.8c-2.3,0.9-3.4,2.1-3.4,3.7c0,4.1,1.3,6.6,3.7,7.5
		c1.3,0,3.1-0.5,5.5-1.3c9.2-1.9,16-3.7,20.7-5.4c2-0.9,3-2.1,3-3.3c-0.1-1.4-0.3-2.7-0.5-3.8h19.4c-0.5,1-0.8,2.2-0.9,3.7
		c0.4,1.6,1.3,2.8,3,3.4c7.7,1.8,14.9,3.5,21.7,5.3c0.6,0.4,1.6,0.6,2.9,0.6c2.9-0.4,4.3-2.6,4.3-6.5c-0.1-1.5-1-2.9-2.8-4.3
		c-2.9-0.7-6.1-1.6-9.8-2.5C162.7,70.6,163.9,69.1,163.9,66.7z M147.5,10.3H159c0.9,0.2,1.4,0.8,1.4,1.8v0.2c0,1.1-0.4,1.5-1.3,1.5
		h-11.7V10.3z M126.4,10.3h11v3.5h-11V10.3z M125.8,20.9h11.6v2.2h-12.1C125.4,22.4,125.6,21.7,125.8,20.9z M121.4,30.6h16V32h-17.2
		C120.6,31.6,121,31.1,121.4,30.6z M151.5,41.1c0.8,0.2,1.3,0.6,1.5,1.3h-40.8c0.1-0.5,0.5-1,1.3-1.3H151.5z M103.1,23.1
		c-1,0-1.5-0.4-1.5-1.4c0-0.5,0.4-0.9,1-0.9h12.1c-0.4,0.8-0.8,1.5-1.3,2.2H103.1z M151.4,62.6h-37.7c-1.1,0-1.6-0.7-1.6-2.1h41
		C153,61.8,152.5,62.4,151.4,62.6z M153.1,52.3h-41v-2.1h41V52.3z M158.5,32h-11.1v-1.4h15.5c0.7,0,1.2,0.4,1.2,0.9
		c0,1.4-0.2,2.5-0.4,3.3C163,33.2,161.3,32.2,158.5,32z M263.9,11.6c0,4-1.2,5.9-3.4,5.9h-34.9v8.1c11.2,7.4,21,14.6,29.5,21.8
		c1,1.4,1.5,2.8,1.5,4c-0.4,2-1.1,3.5-2.2,4.6c-0.9,1.3-2.3,2.1-4.1,2.1c-1.3-0.2-2.7-1-4-2.2c-6.8-5.9-13.7-11.2-20.7-15.6v53.1
		l8-2.4l-14.4,23.6l-14.4-23.6l8.8,2.6V17.5H184c-2.7,0-4-2.1-4-6.4c0-3,1-4.9,3.1-5.6h77.9C262.8,5.9,263.9,8,263.9,11.6z
		 M349.9,58.8c-2.9,0.1-4.7,0.8-5.4,2.1c-0.2,5.7-0.4,8.5-0.5,8.5c-1.3,0-2.4-2.2-3.6-6.9c0.4-0.5,0.7-1.2,1.1-1.9
		c5.9-12,9.3-21.3,9.8-27.6c0-2.2-1.4-3.8-4.3-4.6c-2.3,0-3.8,0.4-4.5,1.3c-1.3,5.5-3,10.7-5.1,15.6c-0.3-1.8-0.5-3.7-0.7-5.8
		c-0.3-3.1-0.4-7.8-0.5-14h15.1c1.7,0,2.6-1.4,2.6-4.5c0-2.7-0.8-4.1-2.2-4.5h-2.3c0,0,0,0,0.2-0.2c1.3-1.1,2-2.4,2-4
		c0-1.3-1.7-4.1-5.1-8.4c-1.7-1.3-3.1-2.2-4-2.6c-2,0.1-3.6,1.2-4.9,3.1c-0.4,0.4-0.5,1.2-0.5,2.4c0,0.5,0.5,1.4,1.6,2.6
		c1.6,2.3,3.1,4.5,4.2,6.5c0.2,0.2,0.4,0.4,0.6,0.5h-7.4c-0.1-3.2-0.1-6.9-0.1-11c-0.5-2.9-2.3-4.3-5.6-4.3c-3.2,0.5-4.8,2-4.8,4.3
		c0,4,0,7.6,0.1,11h-21.7v-2.3h15.7c1.9,0,2.9-1.4,2.9-4.3c0-2.2-0.8-3.6-2.4-4.1h-16.2V4.3c0-2.2-1.7-3.4-4.9-3.4
		c-3.6,0.1-5.4,1.3-5.4,3.4v1.2h-17.9c-1.6,0.5-2.5,1.8-2.5,3.8c0,3.1,1,4.7,3,4.7h17.4v2.3h-21c-1.6,0.5-2.3,2-2.3,4.2
		c0,3.2,1,4.8,3.1,4.8h20.3v2h-18.9c-1.6,0.5-2.4,1.8-2.4,3.8c0,3,1,4.4,2.9,4.4h18.4v2.1h-13.9c-3.7,0.3-5.5,1.9-5.5,4.8v18.6
		c0.2,3.1,2.1,4.8,5.7,4.8h13.8v2.1H274c-1.8,0.5-2.8,2-2.8,4.2c0.1,3.3,1.2,5,3.3,5h19.1v3.9c0,2.1,1.8,3.2,5.4,3.5
		c3.2-0.2,4.9-1.5,4.9-4V77h9.9c-0.4,0.5-0.5,1.1-0.5,1.6c1.3,3.6,3.3,5.4,6.4,5.4c1.7,0,3.3-0.7,4.9-2.1c3.1-2.7,5.8-5.7,8.5-8.8
		c3,7.6,6.7,11.4,11.3,11.4c5.4,0,8.5-7.3,9.6-21.7C353.9,60.9,352.6,59.5,349.9,58.8z M293.6,57.7h-7.7c-1.6,0-2.4-0.5-2.4-1.5
		v-1.3h10.2V57.7z M293.6,47.7h-10.2v-0.7c0.2-1,0.5-1.5,1.2-1.6h9V47.7z M303.9,45.3h8.1c1.3,0,2.1,0.6,2.1,1.8v0.5h-10.2V45.3z
		 M303.9,54.9h10.2v1.1c0,1.2-0.8,1.8-2.2,1.8h-7.9V54.9z M322,68.6c-0.4-0.4-0.9-0.7-1.5-0.9h-16.5v-2.1h13.7
		c3.8,0,5.8-1.7,5.8-5.1V42.8c0-3.2-1.8-4.9-5.2-5.3h-14.2v-2.1h17.9c1.9,0,2.9-1.3,2.9-4.1c0-2.2-0.8-3.5-2.4-4h-18.3v-2h21.8
		c0,7.9,0.2,13,0.4,15.4c0.8,7.2,1.8,13.7,3.1,19.2C327,62.9,324.7,65.8,322,68.6z"/>
</g>
</svg>
