<?xml version="1.0" encoding="utf-8"?>
<!-- Generator: Adobe Illustrator 19.2.0, SVG Export Plug-In . SVG Version: 6.00 Build 0)  -->
<svg version="1.1" id="圖層_1" xmlns="http://www.w3.org/2000/svg" xmlns:xlink="http://www.w3.org/1999/xlink" x="0px" y="0px"
	 viewBox="0 0 628 628" style="enable-background:new 0 0 628 628;" xml:space="preserve">
<style type="text/css">
	.st0{fill:#E61F00;}
	.st1{fill:#FF5E45;}
	.st2{fill:#FFFFFF;}
</style>
<g>
	<g transform="matrix(0.677707,0,0,0.677707,-8.81019,-14.9095)">
		<path class="st0" d="M75.8,22l62.8,62.8H13L75.8,22z"/>
	</g>
	<g transform="matrix(0.031147,0.676991,-0.676991,0.031147,94.2397,59.4271)">
		<path class="st0" d="M808.7-751.2l62.8,62.8L733.3-689L808.7-751.2z"/>
	</g>
	<g transform="matrix(0.932229,0.932229,-0.826131,0.826131,53.3373,-47.9156)">
		<path class="st1" d="M647.9,35.5L521.4-107.2l-373.8-1.4L19.9,35.5H647.9z"/>
	</g>
</g>
<g>
	<path class="st2" d="M259.8,139.3c2.4,2.4,4.2,1.7,12.4-6c0.4,3.2,2.7,8.2,4.5,11.1c-11.5,9.6-16.7,10.3-23.8,3.2l-9.7-9.7
		c-8.6-8.6-8.3-13.3-0.6-21l13.3-13.3l-1.1-1.1c-14.3,6.8-30.8,7.7-54-5.4c1.2-3.1,2.4-8.3,2.4-12c18.5,11,31.4,11.9,42.2,8l-18-18
		l16-16c-1.4-0.1-2.7-0.3-4.1-0.5c0.8-3.4,1.1-9.1,0.4-12.5c16,3.3,31.2,1.7,42.1-1.7l7.5,10.9c-1.7,0.5-3.4,1-5.2,1.4L298.4,71
		l1.8,1.1l2.2,9.8c-4.6,1.3-10.7,2.4-16.5,2.9l19.4,19.4l-24.4,24.4l-16-16l-13.2,13.2c-2.4,2.4-2.3,3.2,0.4,5.9L259.8,139.3z
		 M255.5,88c3.7-2.4,7-5.1,10.5-8l-13.1-13.1l-9.3,9.3L255.5,88z M272.4,58.9c-3.8,0.5-7.5,0.9-11.4,0.9l14.9,14.9
		c3.4-0.3,7.2-0.9,10.7-1.7L272.4,58.9z M275,89c-3.5,2.9-7,5.5-10.6,8l15,15l9.3-9.3L275,89z"/>
	<path class="st2" d="M327.9,203.4c3.9,7.9,7.5,15.9,9.6,21.4l-11.4-1.1c-2.3-6.9-6.9-18.4-12.1-28.7l5.5,0L302,177.4l2.8,7.7
		c-9.4-2.4-22-8.3-31.1-13.9c0.4-2.9,0.4-9.1,0-12.4c7.6,5.5,16.4,10.9,23.6,13.9l-9.4-9.4l21.3-21.3c-2-1.3-4.2-2.7-6.3-4.3
		c1.1-2.6,2.4-7.8,2.6-10.8c9.6,7.5,16.5,10.9,21.8,11.7l-11.6-11.6c4.4-2.8,10.5-7.2,15.2-11l13.7,13.7l2.9-2.9l-16.3-16.3l5-5
		l16.3,16.3l3.2-3.2l7.8,7.8l-3.2,3.2l8,8l3.2-3.2l8.1,8.1l-3.2,3.2l15.2,15.2l-12.9,12.9l-15.2-15.2l-3.2,3.2l19.8,19.8
		c0,0-1.4,1.3-2.3,2.2c-4.8,4.1-7.8,6.2-10.3,6.3c-2.2,0.1-4.2-0.9-5.8-2.4c-0.3-0.3-0.8-0.6-1.2-1.1l-24.7,24.7L327.9,203.4z
		 M301,166.9l30.9,30.9l3-3L304,163.9L301,166.9z M311.5,156.4l-2.9,2.9l30.9,30.9l2.9-2.9L311.5,156.4z M318.9,149l-2.9,2.9
		l30.9,30.9l2.9-2.9L318.9,149z M329.1,130.5l6.8,6.8c1.3-0.7,2.5-1.7,3.7-2.7l-6.8-6.8L329.1,130.5z M337.5,148.9
		c-2.4,0.9-5.1,1.2-7.9,1.2l13.1,13.1l4.5-4.5L337.5,148.9z M355.4,150.5l-8-8c-1.1,1-2.3,2-3.5,2.9l8.3,8.3L355.4,150.5z
		 M355.4,166.7l-4.5,4.5l6.4,6.4c0.6-1.1,1.1-2.3,1.4-3.4c1.5,1.9,2.9,3.5,3.8,4.2c0.6,0.6,1.1,1.1,1.9,1.1c0.6-0.1,1.4-0.5,2.4-1.4
		L355.4,166.7z M352.3,137.6l8,8l2.9-2.9l-8-8L352.3,137.6z M371.3,150.8l-2.9,2.9l7.5,7.5l2.9-2.9L371.3,150.8z"/>
	<path class="st2" d="M376.3,247.6c-9.1-0.2-20.8-2.6-29.4-5.2c0.1-3.1-0.1-8.9-0.6-12.1c8,3.3,18.1,6.2,25.5,6.4L376.3,247.6z
		 M396.4,256.5l-9.9,9.9c-3.9,3.9-6.8,5.2-11.1,3.3c-4.2-1.8-8.3-5.7-13.5-10.9c1.9-2.8,3.9-7.5,4.9-10.8c3.6,3.9,7.8,8.3,9.1,9.4
		s1.8,1.2,2.6,0.4l9.1-9.1c-19.9-17.3-23.5-20-26.7-21.6c1.1-1.7,3.7-6.3,4.9-8.9c3.1,2.4,6.8,4.2,12.6,6.8c2.3,1,6.7,2.9,12.2,5
		c-8.7-7.5-10.8-9.1-12.4-9.8c1.2-1.7,3.4-6.3,4.7-9c1.9,1.4,4.2,2.3,7.5,3.3c2.5,0.8,9.6,3.2,16.9,4.5L391,202.8l-7.8,7.8l-8.1-8.1
		l14.9-14.9l27.7,27.7l4.3-4.3l-26.1-26.1l7.3-7.3l26.1,26.1l5.6-5.6l9.1,9.1l-5.6,5.6l26,26L457,246l-26-26l-4.3,4.3l27.7,27.7
		l-14.9,14.9l-8.5-8.5l7.8-7.8l-23.1-23.1l0.2,2.9c-6.3-1.1-13.1-3.2-19.7-5.5l12.2,11.4c5.8,1.8,11.6,3.4,16.9,4.4l0.9,10.9
		c-12.6-3.2-25.4-7.8-37.4-13l23.6,21.1c-0.1-2.8-0.2-5.5-0.4-8l9.8,2.3c0.7,9.1,1.2,21.5,0.4,28.7l-10.7-2.2
		c0.5-2.7,0.6-6.1,0.8-10L396.4,256.5z M404,268c2.6,8.3,5.8,20.8,6.8,28.2l-11.9-2.2c-0.4-6.8-3.1-19.3-5.6-28.3L404,268z"/>
	<path class="st2" d="M532.7,316.8c-17.2,14.1-32.8,22.9-47.7,26.9c-1.4,8.6-1.1,16.9,1.4,24.9c-3.7-0.4-9.4,0.2-13,1.1
		c-1.9-7.8-2.2-15.7-1.2-23.6c-8,0.9-16,0.1-23.7-1.9c0.7-2.9,1.3-7.3,1.4-10.7l-6.6,6.6l-8.2-8.2l11.4-11.4
		c-9.8-6.9-19.5-14-27.2-19.5l6.9-10.1c2.2,1.7,4.7,3.7,7.4,5.8l38.1-38.1l-5-5l7.9-7.9l35.9,35.9l-5.1,5.1l21.6,21.6l1.7,1.2
		L532.7,316.8z M442.7,303.8c3.7,2.9,7.6,5.9,11.6,8.8l6.4-6.4L450.4,296L442.7,303.8z M451.1,332.1c7.5,2.2,15.4,2.5,23.7,1.2
		c3.7-12.3,10.2-24.9,18.8-37.9l9.6,6.5c-6.3,9.1-11.3,18.5-14.6,27.8c9-3.2,18.3-8.3,27.7-15.2l-21.3-21.3l5.5-5.5l-2.5-2.5
		L451.1,332.1z M458,288.4l10.2,10.2l7.2-7.2l-10.2-10.2L458,288.4z M479.7,266.8l-6.8,6.8l10.2,10.2l6.8-6.8L479.7,266.8z"/>
	<path class="st2" d="M498.9,372c3.9-3.9,9.7-4.1,13.4-0.4c3.7,3.7,3.6,9.6-0.3,13.5c-3.9,3.9-9.8,4-13.5,0.3
		C494.8,381.7,495.1,375.8,498.9,372z M539.2,334.8l9.6-10.3l10.6,10.6l-10.3,9.6l-28,25l-6.9-6.9L539.2,334.8z"/>
	<path class="st2" d="M525.5,398.6c3.9-3.9,9.7-4.1,13.4-0.4c3.7,3.7,3.6,9.6-0.3,13.5c-3.9,3.9-9.8,4-13.5,0.3
		C521.4,408.3,521.6,402.4,525.5,398.6z M565.8,361.4l9.6-10.3l10.6,10.6l-10.3,9.6l-28,25l-6.9-6.9L565.8,361.4z"/>
</g>
</svg>
